<?xml version="1.0" encoding="utf-8"?>
<!-- Generator: Adobe Illustrator 15.1.0, SVG Export Plug-In . SVG Version: 6.00 Build 0)  -->
<!DOCTYPE svg PUBLIC "-//W3C//DTD SVG 1.1//EN" "http://www.w3.org/Graphics/SVG/1.1/DTD/svg11.dtd">
<svg version="1.1" id="圖層_1" xmlns="http://www.w3.org/2000/svg" xmlns:xlink="http://www.w3.org/1999/xlink" x="0px" y="0px"
	 width="306.354px" height="300.033px" viewBox="0 0 306.354 300.033" enable-background="new 0 0 306.354 300.033"
	 xml:space="preserve">
<g>
	<circle fill-rule="evenodd" clip-rule="evenodd" fill="#FFFFFF" cx="152.828" cy="150.017" r="149.517"/>
	<path fill="#2A3B93" d="M152.827,300.033c-82.719,0-150.016-67.297-150.016-150.016S70.108,0,152.827,0
		c82.72,0,150.018,67.297,150.018,150.017S235.547,300.033,152.827,300.033z M152.827,1C70.659,1,3.811,67.849,3.811,150.017
		c0,82.167,66.848,149.016,149.016,149.016c82.169,0,149.018-66.849,149.018-149.016C301.845,67.849,234.996,1,152.827,1z"/>
</g>
<path fill-rule="evenodd" clip-rule="evenodd" fill="#2A3B93" d="M143.177,24.666c1.333,0,2.667,0,4,0c1.378,1.289,0.99,4.344,1,7
	c6.77,0.867,1.363-4.498,4-7c1.333,0,2.667,0,4,0c0.554,3.172,1.276,10.203,1,17c-1.667,0-3.333,0-5,0c0-2.667,0-5.333,0-8
	c-1,0-2,0-3,0c-2.255,0.745-0.391,5.609-1,8c-1.667,0-3.333,0-5,0C143.68,34.879,142.294,29.09,143.177,24.666z"/>
<path fill-rule="evenodd" clip-rule="evenodd" fill="#2A3B93" d="M166.177,25.666c1.667,0,3.333,0,5,0
	c1.301,5.365,1.951,11.382,3,17c-5.238,0.843-8.826-8.864-12-1C159.767,36.562,166.042,31.551,166.177,25.666z M165.177,36.666
	c1,0,2,0,3,0c0.279-2.279-0.241-3.759-2-4C165.862,34.018,164.753,34.575,165.177,36.666z"/>
<path fill-rule="evenodd" clip-rule="evenodd" fill="#2A3B93" d="M181.177,26.666c1.314,1.02,3.686,0.98,5,2c0,3,0,6,0,9
	c3.083-1.584,3.508-5.826,6-8c1.793-0.127,2.109,1.224,4,1c-0.204,6.129-2.358,10.309-3,16c-1.333,0-2.667,0-4,0
	c-2.078-2.372,0.867-5.784,1-9c-3.756,1.244-2.371,7.629-8,7c0-3,0-6,0-9c-3.119,0.547-1.534,5.8-3,8
	C176.438,38.563,180.94,32.118,181.177,26.666z"/>
<path fill-rule="evenodd" clip-rule="evenodd" fill="#2A3B93" d="M107.177,37.666c-3.417,0.75-1.271-4.063-5-3
	c-4.375,3.225-0.933,13.658,4,14c2.279-1.385,0.762-7.35-3-6c1.008-2.326,3.442-3.225,7-3c-0.267,3.601,1.847,4.819,2,8
	c-5.94,0.354-4.408,3.9-10,3C87.825,48.356,100.554,22.188,107.177,37.666z"/>
<path fill-rule="evenodd" clip-rule="evenodd" fill="#2A3B93" d="M203.177,33.666c5.354-0.354,7.223,2.777,11,4
	c0.484,3.817-0.284,6.383-2,8c-8.495-3.937-6.958,4.009-14,4C198.241,42.73,201.747,39.236,203.177,33.666z M205.177,42.666
	c4.812,2.492,7.401-5.688,3-6C206.022,37.511,206.563,41.052,205.177,42.666z"/>
<path fill-rule="evenodd" clip-rule="evenodd" fill="#2A3B93" d="M220.177,40.666c1,0,2,0,3,0c1.897,5.814-2.477,13.34-7,16
	c-0.027-0.973-1.224-0.776-2-1C214.4,48.889,219.198,46.687,220.177,40.666z"/>
<path fill-rule="evenodd" clip-rule="evenodd" fill="#2A3B93" d="M80.177,43.666c-6.629,5.44,3.033,10.337,4,17
	c-2.409-0.409-2.174,1.826-5,1c-2.051-4.282-4.675-7.992-7-12c-2.039,0.558-1.961,3.009-4,1
	C71.355,47.511,75.336,45.158,80.177,43.666z"/>
<path fill-rule="evenodd" clip-rule="evenodd" fill="#2A3B93" d="M240.177,50.666c5.125,11.945-12.926,19.407-16,9
	C222.04,52.432,232.563,42.623,240.177,50.666z M228.177,62.666c5.963-1.037,7.071-6.929,9-12c-1.278-0.055-1.385-1.282-3-1
	C232.302,54.124,227.556,55.711,228.177,62.666z"/>
<path fill-rule="evenodd" clip-rule="evenodd" fill="#2A3B93" d="M94.177,51.666c0,1.333,0,2.667,0,4c-2.615,0.282-4.301-0.365-4-3
	C91.067,51.889,92.435,51.59,94.177,51.666z"/>
<path fill-rule="evenodd" clip-rule="evenodd" fill="#2A3B93" d="M250.177,57.666c0,4,0,8,0,12c2.555,2.488,3.138-5.479,7-5
	c-2.777,5.223-6.288,9.711-11,13c-3.985-3.066,0.087-8.035-1-14c-1.761,2.573-4.349,4.318-6,7
	C239.069,66.538,244.435,59.271,250.177,57.666z"/>
<path fill-rule="evenodd" clip-rule="evenodd" fill="#2A3B93" d="M134.177,60.666c1.214,5.547-2.592,6.075-4,9
	c0.319,1.71,3.095-0.921,4,2c0.142,4.142-6.958,1.042-10,2c-0.264-6.598,7.635-5.032,6-13c-5.657-1.99-2.026,5.307-6,5
	c0-1.667,0-3.333,0-5C127.466,58.574,130.887,58.574,134.177,60.666z"/>
<path fill-rule="evenodd" clip-rule="evenodd" fill="#2A3B93" d="M148.177,73.666c-2.333,0-4.667,0-7,0
	c-2.298-3.926-2.875-6.951-2-12C146.878,53.083,155.481,67.021,148.177,73.666z M145.177,72.666c1.917-2.417,0.631-8.036,1-12
	c-1,0-2,0-3,0C143.874,64.636,141.434,71.742,145.177,72.666z"/>
<path fill-rule="evenodd" clip-rule="evenodd" fill="#2A3B93" d="M162.177,59.666c1.311,5.418-0.343,6.044,0,14
	c-7.234,1.234-1.839-10.161-6-12C159.327,62.148,158.441,58.596,162.177,59.666z"/>
<path fill-rule="evenodd" clip-rule="evenodd" fill="#2A3B93" d="M181.177,59.666c-1.874,4.126-4.612,7.388-4,14
	c-1.667,0-3.333,0-5,0c0.356-4.31,2.259-7.075,4-10c0.164-2.831-6.164,0.831-6-2C170.299,57.454,177.851,60.672,181.177,59.666z"/>
<path fill-rule="evenodd" clip-rule="evenodd" fill="#2A3B93" d="M58.177,62.666c-1.69,3.357-5.385-1.993-8,3
	c1.852,4.537,7.067-0.456,12,1c8.058,4.557-5.108,17.723-8,8c3.078-0.745,1.922,2.745,5,2c1.464-0.87,3.169-1.497,3-4
	c-2.823-3.08-6.902,1.041-11,0c-0.294-2.039-2.706-1.961-3-4C48.113,63.6,53.443,59.727,58.177,62.666z"/>
<path fill-rule="evenodd" clip-rule="evenodd" fill="#2A3B93" d="M69.177,64.666c2.615-0.282,4.301,0.365,4,3
	C71.305,69.629,68.359,68.244,69.177,64.666z"/>
<path fill-rule="evenodd" clip-rule="evenodd" fill="#2A3B93" d="M306.354,191.5c-11.101,12.404-42.457,12.311-66.301,10.288
	c5.203-8.572,20.444-3.798,32.008-4.572c10.434-0.7,19.935-2.703,26.291-5.716c-4.184-5.672-11.55-8.617-17.146-11.431
	c-30.249-15.208-59.304-32.549-78.875-60.585c-7.381-10.573-12.498-22.934-20.576-34.293c-4.91-0.433-13.467,4.614-19.433,6.859
	c-7.336,9.81-14.085,20.208-24.005,27.435c2.703,4.536,12.081,2.399,13.717,8.001c-27.661,5.498-38.01-20.536-64.014-14.86
	C61.646,118.381,34.633,141.972,0,141.203c5.419-5.582,14.863-5.595,22.862-8.001c29.561-8.894,60.237-34.266,96.021-21.719
	c3.601,1.263,8.517,4.688,11.431,4.572c13.139-0.524,15.542-22.049,26.292-29.721c3.125-2.23,13.92-3.76,20.576-6.858
	c12.673-5.9,13.873,3.731,20.576,16.003c17.309,31.686,42.231,57.891,74.303,73.159C284.277,174.454,298.249,175.695,306.354,191.5z
	"/>
<path fill-rule="evenodd" clip-rule="evenodd" fill="#2A3B93" d="M116.597,200.644c16.333-2.338,19.589-17.752,33.15-22.861
	c2.208,4.65,1.526,12.191,4.572,16.003c6.911-3.759,7.227-14.112,14.86-17.146c9.739,2.697,19.633-1.738,28.578,1.144
	c5.453,4.8-1.192,14.762,1.144,19.433c14.01-3.922,19.706-30.476,40.009-17.146c9.447,19.856-21.755,33.481-27.435,14.86
	c-4.434,3.948-7.342,9.424-16.003,9.145c-0.031-1.111-1.399-0.888-2.286-1.143c-4.732-5.34,0.109-13.161-1.143-21.72
	c-14.381-4.942-12.64,21.436-21.719,21.72c-7.846-5.707,7.884-15.632,0-21.72c-9.662,0.529-7.729,18.33-17.146,18.29
	c-5.17-0.022-6.639-4.299-9.145-10.288c-7.964,7.316-19.44,20.587-33.15,14.86c-5.463-19.873,22.602-29.469,20.576-49.153
	c-1.128-10.961-16.608-19.058-30.864-20.576c-22.171-2.362-50.048,6.788-60.585,20.576c-5.293,6.928-11.465,24.142-9.145,36.579
	c2.289,12.27,12.906,15.358,27.435,19.433c3.724-6.484,1.105-21.312,6.858-28.577c9.222-2.588,21.661,0.05,29.721,2.286
	c5.941,21.521-4.575,35.568-27.435,32.007c-3.894,1.822,0.463,11.894-6.858,10.288c-4.634,0.443-1.259-7.124-2.286-10.288
	c-17.128-4.065-31.136-7.946-34.293-21.719c-2.883-12.575,1.638-30.439,8.002-40.009c17.528-26.358,82.721-38.155,102.88-10.288
	C149.301,164.558,118.068,181.35,116.597,200.644z M225.192,199.501c6.917-1.281,12.034-8.499,9.146-16.004
	C222.691,177.077,213.612,195.54,225.192,199.501z M67.443,212.076c7.482-0.521,15.427-0.577,19.433-4.572
	c2.263-5.326,3.494-14.571,0-19.433c-6.451,0.354-10.166-2.027-17.146-1.144C69.219,194.994,66.31,206.103,67.443,212.076z"/>
<path fill-rule="evenodd" clip-rule="evenodd" fill="#2A3B93" d="M182.897,157.207c4.164-0.354,7.439,0.182,10.288,1.143
	c1.376,6.71-2.86,7.807-6.858,9.145c-2.101,1.328-0.792,6.065-5.716,4.572C178.736,168.462,182.948,162.635,182.897,157.207z
	 M187.47,164.065c0.014-2.271,3.119-1.453,2.286-4.572C186.865,158.289,184.689,163.348,187.47,164.065z"/>
<path fill-rule="evenodd" clip-rule="evenodd" fill="#2A3B93" d="M195.472,158.35c2.494-0.208,3.637,0.936,3.43,3.429
	c-1.144,0-2.287,0-3.43,0C195.472,160.636,195.472,159.493,195.472,158.35z"/>
<path fill-rule="evenodd" clip-rule="evenodd" fill="#2A3B93" d="M171.466,166.351c-3.326,7.308-14.268,1.271-17.146-2.286
	C157.542,155.054,165.895,164.602,171.466,166.351z"/>
<path fill-rule="evenodd" clip-rule="evenodd" fill="#2A3B93" d="M208.046,161.779c5.648,3.331-6.856,8.181,0,9.145
	c-0.982,2.361-7.957,1.206-9.145,0c-1.111-4.463,8.015-4.525,2.286-6.858C201,160.829,208.233,165.015,208.046,161.779z"/>
<path fill-rule="evenodd" clip-rule="evenodd" fill="#2A3B93" d="M225.192,161.779c1.327,0.959,3.065,1.508,5.716,1.143
	c-0.184,5.358-0.237,6.501-1.143,9.145c-0.919-0.605-1.856-1.192-3.429-1.144c-0.026-2.692,1.969-3.365,1.143-6.858
	c-1.764,0.273-5.479,4.251-2.287,5.716C218.189,173.528,221.949,163.513,225.192,161.779z"/>
<path fill-rule="evenodd" clip-rule="evenodd" fill="#2A3B93" d="M194.329,162.922c1.143,0,2.286,0,3.429,0
	c0.81,4.24-1.953,4.905-1.143,9.145C191.203,172.678,193.495,165.592,194.329,162.922z"/>
<path fill-rule="evenodd" clip-rule="evenodd" fill="#2A3B93" d="M211.475,162.922c2.667,0,5.334,0,8.002,0
	c1.873,4.63-6.048,5.261-2.286,8.001c-0.715,2.441-7.036,1.072-8.002,0C209.571,165.412,215.818,167.623,211.475,162.922z"/>
<path fill-rule="evenodd" clip-rule="evenodd" fill="#2A3B93" d="M98.308,210.932c4.319,0.254,3.268,5.878,6.858,6.859
	c2.479,0.192,0.518-4.055,1.143-5.716c1.802-2.349,1.802,11.129,0,12.574c-3.827-0.745-4.275-4.869-6.858-6.858
	c-1.552,0.354-0.948,2.862-1.143,4.572C96.521,225,96.521,212.086,98.308,210.932z"/>
<path fill-rule="evenodd" clip-rule="evenodd" fill="#2A3B93" d="M157.749,210.932c1.143,0,2.286,0,3.43,0
	c-0.977,4.739,2.627,14.06-3.43,13.718C156.428,217.625,156.812,214.754,157.749,210.932z"/>
<path fill-rule="evenodd" clip-rule="evenodd" fill="#2A3B93" d="M186.327,214.362c-3.841,2.016-0.902,8.271-2.287,10.288
	c-5.491,0.156-2.764-7.904-4.572-11.432C182.948,211.786,183.914,212.346,186.327,214.362z"/>
<path fill-rule="evenodd" clip-rule="evenodd" fill="#2A3B93" d="M128.028,214.362c2.667,0,5.334,0,8.002,0
	c3.755,7.444-3.048,11.467-8.002,13.718C128.028,223.506,128.028,218.934,128.028,214.362z M132.601,222.364
	c-0.327-1.991,3.65-6.136-1.143-5.716C132.083,218.309,130.122,222.557,132.601,222.364z"/>
<path fill-rule="evenodd" clip-rule="evenodd" fill="#2A3B93" d="M149.748,214.362c0.958,2.472,2.959,3.899,2.286,8.002
	c-1.018,0.507-2.044,1.003-2.286,2.286c-4.103,0.673-5.53-1.328-8.002-2.286C141.395,216.678,143.312,213.261,149.748,214.362z
	 M147.461,222.364c0.805-2.852,1.125-4.697-1.144-6.858C146.976,217.514,144.937,222.221,147.461,222.364z"/>
<path fill-rule="evenodd" clip-rule="evenodd" fill="#2A3B93" d="M205.76,214.362c3.293,0.136,7.483-0.624,9.145,1.144
	c-0.352,3.839,1.526,9.908-3.43,9.145c0-2.667,0-5.335,0-8.002c-5.269-0.696,0.678,9.822-5.715,8.002
	C205.76,221.22,205.76,217.792,205.76,214.362z"/>
<path fill-rule="evenodd" clip-rule="evenodd" fill="#2A3B93" d="M137.177,35.666c2.208,0.125,0.425,4.242,1,6
	c-22.563,11.608-12.396-30.232-1-11c-3.292,3.173-2.017-3.859-6-3c-3.666,2.417-1.862,11.11,0,14
	C137.938,43.147,136.437,37.909,137.177,35.666z"/>
<path fill-rule="evenodd" clip-rule="evenodd" fill="#2A3B93" d="M174.896,215.505c0,1.523,0,3.048,0,4.572
	c-5.286-0.856-4.667,1.288-3.43,4.572c-3.647,0.98-3.535-1.8-5.715-2.286C164.337,215.905,170.097,212.124,174.896,215.505z"/>
<path fill-rule="evenodd" clip-rule="evenodd" fill="#2A3B93" d="M121.17,214.362c-0.354,4.164,0.182,7.439,1.143,10.288
	c-3.239-1.192-4.764-1.192-8.002,0c-0.959-1.327-1.508-3.064-1.143-5.716c2.129-0.157,3.82-0.752,4.572-2.286
	c-1.148-4.541-5.055,5.029-4.572-1.143C114.642,213.93,118.133,214.375,121.17,214.362z"/>
<path fill-rule="evenodd" clip-rule="evenodd" fill="#2A3B93" d="M198.901,214.362c-0.354,4.164,0.182,7.439,1.143,10.288
	c-3.922-1.951-7.386,1.56-10.288-2.286c0.945-2.866,4.005-3.616,5.715-5.716c-1.148-4.541-5.055,5.029-4.572-1.143
	C192.373,213.93,195.865,214.375,198.901,214.362z"/>
<path fill-rule="evenodd" clip-rule="evenodd" fill="#2A3B93" d="M228.622,214.362c0.511,6.237,0.297,6.403,2.286,10.288
	c-3.429,0-6.859,0-10.288,0c-2.282-4.193,1.63-5.952,4.572-8.002c-0.751-3.424-2.443,1.093-4.572,0
	C222.141,213.528,225.728,213.292,228.622,214.362z"/>
<path fill-rule="evenodd" clip-rule="evenodd" fill="#1AAD64" d="M42.33,242.255c3.145-0.84,2.32,2.29,4.61,2.305
	c9.032-4.731,28.082-0.253,41.489-2.305c0,1.536,0,3.074,0,4.61c6.977-7.349,18.06-1.876,26.507-4.61
	c1.233,3.744,2.215,7.043,1.152,11.525c-0.215,0.908-2.291,3.02-2.305,2.305c0.053,2.548,3.173,5.427,3.458,8.067
	c0.776,7.217-2.886,15.062-1.152,25.354c-13.629-2.444-25.188-7.21-38.032-14.982c-8.321-5.035-12.794-8.572-18.44-13.83
	c-4.005-3.729-5.242-2.032-3.458-6.914C49.523,255.763,45.699,247.153,42.33,242.255z M65.38,249.17
	c3.3,0.228,6.29,0.143,5.762-3.457c-2.179,0.257-2.543-1.299-4.61-1.153C66.17,246.12,64.892,246.762,65.38,249.17z M88.429,252.627
	c0.768,0,1.537,0,2.305,0c0-0.769,0-1.536,0-2.305c-0.768,0-1.537,0-2.305,0C88.429,251.091,88.429,251.859,88.429,252.627z
	 M109.174,251.475c0,0.769,0,1.536,0,2.306c1.156-0.004,1.372,0.933,2.305,1.152c0.337-0.708,2.867-4.437,0-4.61
	C111.225,251.221,110.514,251.664,109.174,251.475z M84.972,258.39C84.046,265.367,90.255,259.159,84.972,258.39L84.972,258.39z"/>
<path fill-rule="evenodd" clip-rule="evenodd" fill="#DB5E19" d="M233.796,241.103c8.586,5.75,19.93-1.305,27.66,3.457
	c-18.271,21.299-40.817,38.32-73.76,44.947c0.434-16.648-1.257-32.704,2.305-43.794c8.019-1.498,18.717-0.231,25.354-2.306
	C212.284,247.284,239.143,246.334,233.796,241.103z M229.186,249.17c1.934,3.242,7.906-1.816,4.61-3.457
	C233.482,248.088,228.692,245.988,229.186,249.17z M213.051,250.323c-1.337-0.967-3.09-1.521-5.762-1.152
	C206.616,253.843,212.029,252.831,213.051,250.323z M226.881,265.305c0.768,0,1.537,0,2.305,0c0-0.769,0-1.536,0-2.305
	c-0.768,0-1.537,0-2.305,0C226.881,263.769,226.881,264.537,226.881,265.305z"/>
<path fill="#2A3B93" d="M152.827,296.83c-80.953,0-146.813-65.86-146.813-146.813c0-80.954,65.86-146.814,146.813-146.814
	c80.954,0,146.814,65.86,146.814,146.814C299.642,230.969,233.781,296.83,152.827,296.83z M152.827,6.202
	C73.528,6.202,9.014,70.717,9.014,150.016c0,79.299,64.515,143.813,143.813,143.813c79.299,0,143.814-64.515,143.814-143.813
	C296.642,70.717,232.126,6.202,152.827,6.202z"/>
</svg>
